<svg width="31" height="25" viewBox="0 0 31 25" fill="none" xmlns="http://www.w3.org/2000/svg">
<path d="M5.65633 0.833252H25.3438C26.5544 0.833173 27.7192 1.29635 28.5992 2.12777C29.4791 2.95919 30.0076 4.09583 30.0761 5.3045L30.0834 5.57284V19.427C30.0835 20.6376 29.6203 21.8024 28.7889 22.6823C27.9575 23.5623 26.8208 24.0908 25.6122 24.1593L25.3438 24.1666H5.65633C4.44571 24.1667 3.28096 23.7035 2.40099 22.8721C1.52103 22.0406 0.992579 20.904 0.92404 19.6953L0.916748 19.427V5.57284C0.916669 4.36222 1.37985 3.19746 2.21127 2.3175C3.04269 1.43754 4.17932 0.909083 5.388 0.840544L5.65633 0.833252H25.3438H5.65633ZM27.8959 8.66888L16.0105 14.9251C15.8763 14.996 15.7288 15.0382 15.5774 15.049C15.426 15.0598 15.274 15.039 15.1311 14.9878L14.9911 14.9266L3.10425 8.67033V19.427C3.10427 20.0675 3.34512 20.6845 3.77899 21.1557C4.21286 21.6268 4.80802 21.9176 5.44633 21.9703L5.65633 21.9791H25.3438C25.9845 21.979 26.6018 21.738 27.073 21.3038C27.5442 20.8696 27.8348 20.2741 27.8872 19.6355L27.8959 19.427V8.66888ZM25.3438 3.02075H5.65633C5.01585 3.02078 4.39878 3.26163 3.92764 3.69549C3.45649 4.12936 3.1657 4.72452 3.113 5.36284L3.10425 5.57284V6.19846L15.5001 12.7216L27.8959 6.197V5.57284C27.8959 4.93212 27.6548 4.31486 27.2206 3.84368C26.7865 3.37249 26.1909 3.08186 25.5524 3.0295L25.3438 3.02075Z" fill="white" fill-opacity="0.5"/>
<path d="M15.0709 15.1256L15.071 15.1253L14.931 15.064L14.9211 15.0597L14.9213 15.0593L3.25425 8.91879V19.427C3.25427 20.0298 3.48096 20.6106 3.88933 21.0541C4.29702 21.4968 4.85603 21.7703 5.4557 21.8206L5.65946 21.8291H25.3438C25.9469 21.829 26.5279 21.6022 26.9713 21.1935C27.4141 20.7855 27.6875 20.2262 27.7374 19.6262L27.7459 19.4238V8.91735L16.0806 15.0578L15.0709 15.1256ZM15.0709 15.1256L15.0806 15.1291M15.0709 15.1256L15.0806 15.1291M15.0806 15.1291C15.2431 15.1872 15.4159 15.2109 15.5881 15.1986C15.7602 15.1864 15.9278 15.1384 16.0804 15.0579L15.0806 15.1291ZM5.65633 0.683252V0.683197L5.65226 0.683307L5.38392 0.690599L5.38392 0.690534L5.37951 0.690784C4.13258 0.761493 2.95997 1.30667 2.10224 2.21448C1.24451 3.12229 0.766669 4.32391 0.766748 5.57284C0.766748 5.57284 0.766748 5.57284 0.766748 5.57285V19.427H0.766693L0.766803 19.4311L0.774095 19.6994L0.77403 19.6994L0.77428 19.7038C0.844989 20.9508 1.39017 22.1234 2.29798 22.9811C3.20579 23.8388 4.40741 24.3167 5.65633 24.3166H25.3438V24.3166L25.3479 24.3165L25.6162 24.3092L25.6162 24.3093L25.6207 24.3091C26.8676 24.2383 28.0402 23.6932 28.8979 22.7854C29.7557 21.8775 30.2335 20.6759 30.2334 19.427V5.57284H30.2335L30.2334 5.56876L30.2261 5.30043L30.2261 5.30043L30.2259 5.29601C30.1552 4.04908 29.61 2.87648 28.7022 2.01874C27.7944 1.16101 26.5928 0.68317 25.3438 0.683252H5.65633ZM5.65633 3.17075H25.3407L25.5431 3.17924C26.143 3.22917 26.7023 3.50255 27.1103 3.94532C27.519 4.38881 27.7459 4.96979 27.7459 5.57284V6.10644L15.5001 12.5521L3.25425 6.10789V5.57596L3.26274 5.37218C3.31301 4.77252 3.58653 4.21352 4.02925 3.80584C4.4727 3.39747 5.0535 3.17077 5.65633 3.17075Z" stroke="white" stroke-opacity="0.5" stroke-width="0.3"/>
</svg>
