<svg width="32" height="38" viewBox="0 0 32 38" fill="none" xmlns="http://www.w3.org/2000/svg">
<path d="M16.1249 22.8686L16.1249 22.8685H16.1212H16.0381C15.2483 22.8685 14.5983 22.2185 14.5983 21.4287C14.5983 20.639 15.2483 19.989 16.0381 19.989C16.8279 19.989 17.4779 20.639 17.4779 21.4287C17.4779 21.9803 17.92 22.4224 18.4715 22.4224C19.0231 22.4224 19.4652 21.9803 19.4652 21.4287C19.4652 19.8817 18.4384 18.5835 17.0317 18.1548V16.9299C17.0317 16.3783 16.5897 15.9362 16.0381 15.9362C15.4865 15.9362 15.0445 16.3783 15.0445 16.9299V18.1548C13.6378 18.5835 12.611 19.8817 12.611 21.4287L12.611 21.4289C12.6123 22.3194 12.9607 23.1742 13.5822 23.8119C14.2037 24.4495 15.0493 24.8197 15.9394 24.8439L15.9394 24.8439H15.9431H16.0262C16.816 24.8439 17.466 25.494 17.466 26.2837C17.466 27.0735 16.816 27.7235 16.0262 27.7235C15.2371 27.7235 14.5983 27.0861 14.5983 26.2837C14.5983 25.7322 14.1562 25.2901 13.6047 25.2901C13.0531 25.2901 12.611 25.7322 12.611 26.2837L12.611 26.2839C12.6121 27.0367 12.8611 27.7682 13.3196 28.3653C13.7563 28.9341 14.3598 29.3507 15.0445 29.558V30.7826C15.0445 31.3342 15.4865 31.7763 16.0381 31.7763C16.5897 31.7763 17.0317 31.3342 17.0317 30.7826V29.5577C18.4384 29.129 19.4652 27.8308 19.4652 26.2837C19.4652 24.4271 17.9799 22.9181 16.1249 22.8686Z" fill="#0C56DB" stroke="#0C56DB" stroke-width="0.277941"/>
<path d="M9.61878 6.17343L9.61066 6.15558C9.38636 5.66219 9.33087 5.10865 9.45278 4.58056C9.57469 4.05247 9.86721 3.57927 10.2851 3.23413C10.703 2.889 11.2229 2.69118 11.7645 2.67126C12.2646 2.65286 12.7574 2.78708 13.1781 3.05454L14.1456 1.97416L14.1458 1.97393C14.3842 1.70896 14.6757 1.49719 15.0014 1.35243C15.327 1.20766 15.6796 1.13315 16.036 1.13374C16.3924 1.13433 16.7447 1.21002 17.0699 1.35586C17.3951 1.50171 17.6859 1.71445 17.9234 1.98021L17.926 1.9832L17.926 1.98323L18.8473 3.07612C19.2681 2.81553 19.7588 2.68739 20.2552 2.71011C20.794 2.73477 21.3097 2.93573 21.7231 3.28208C22.1365 3.62844 22.4247 4.10101 22.5433 4.62711C22.6619 5.15322 22.6044 5.70372 22.3797 6.19396L22.3754 6.20316L22.3699 6.21164L22.1883 6.49179L22.1829 6.50013L22.1764 6.50762L19.4222 9.66035C19.5018 9.84927 19.5404 10.0528 19.5355 10.2576C26.3457 11.8407 31.4186 17.947 31.4067 25.2405M9.61878 6.17343L31.2677 25.2403M9.61878 6.17343L9.63153 6.18835L12.8596 9.96566M9.61878 6.17343L12.8596 9.96566M31.4067 25.2405L31.2677 25.2403M31.4067 25.2405C31.4067 25.2404 31.4067 25.2404 31.4067 25.2403H31.2677M31.4067 25.2405C31.4066 31.7058 26.1594 36.9517 19.6941 36.9517H12.37C5.90463 36.9517 0.657416 31.7045 0.657416 25.2391C0.657416 17.9211 5.76633 11.7974 12.6131 10.2409M31.2677 25.2403C31.2677 31.6289 26.0827 36.8127 19.6941 36.8127H12.37C5.98138 36.8127 0.796387 31.6277 0.796387 25.2391C0.796387 17.972 5.88048 11.8932 12.687 10.3667M12.6131 10.2409L12.5835 10.2739L12.687 10.3667M12.6131 10.2409L12.8596 9.96566M12.6131 10.2409C12.6276 10.2376 12.6421 10.2343 12.6566 10.2311L12.687 10.3667M12.687 10.3667L12.8596 9.96566M28.7547 25.2367V25.2365C28.7664 18.2078 23.0693 12.5105 16.038 12.5105C9.00676 12.5105 3.30947 18.2078 3.30944 25.239L28.7547 25.2367ZM28.7547 25.2367V25.239M28.7547 25.2367V25.239M28.7547 25.239C28.7547 25.2391 28.7547 25.2391 28.7547 25.2391C28.7537 27.6418 27.7988 29.9459 26.0998 31.6449M28.7547 25.239L26.0998 31.6449M26.0998 31.6449C24.4008 33.3438 22.0968 34.2988 19.694 34.2997M26.0998 31.6449L19.694 34.2997M19.694 34.2997H12.37M19.694 34.2997H12.37M12.37 34.2997C9.96734 34.2988 7.66327 33.3438 5.96427 31.6449M12.37 34.2997L5.96427 31.6449M5.96427 31.6449C4.26528 29.9459 3.31038 27.6418 3.30944 25.2391L5.96427 31.6449ZM14.3103 7.60314L12.6814 5.72072C13.0358 5.80438 13.4066 5.80969 13.7672 5.73345C14.3052 5.61971 14.7903 5.33085 15.1467 4.91206L15.1468 4.91216L15.1509 4.90683L15.9954 3.81112L16.9384 4.92825L16.9392 4.92922C17.2874 5.33413 17.7571 5.6157 18.2783 5.73196C18.6292 5.81022 18.9909 5.81075 19.3384 5.73604L17.7079 7.60314H14.3103Z" fill="#0C56DB" stroke="#0C56DB" stroke-width="0.277941"/>
</svg>
