<svg width="32" height="32" viewBox="0 0 32 32" fill="none" xmlns="http://www.w3.org/2000/svg">
<path d="M30.1544 1.39076L30.5499 1.78695C30.7127 1.94996 30.8239 2.1572 30.8699 2.38291C30.9159 2.60863 30.8945 2.84288 30.8085 3.05656L19.8242 30.5198L19.8242 30.5199C19.7116 30.8013 19.5235 31.0462 19.2806 31.2276C19.0378 31.409 18.7496 31.5199 18.4478 31.5481C18.146 31.5762 17.8423 31.5206 17.5701 31.3872C17.2979 31.2539 17.0678 31.048 16.905 30.7923L16.905 30.7922L10.9335 21.4055L1.54821 15.4334C1.29191 15.2708 1.08552 15.0406 0.951795 14.7681C0.818071 14.4956 0.762215 14.1915 0.790389 13.8892C0.818563 13.587 0.929672 13.2984 1.11146 13.0554L1.29608 13.1934L1.11146 13.0554C1.2932 12.8124 1.53852 12.6243 1.82036 12.5118L30.1544 1.39076ZM30.1544 1.39076V1.52846C30.0897 1.50268 30.0226 1.48258 29.9538 1.46855C29.7282 1.42259 29.494 1.4439 29.2804 1.52984C29.2803 1.52988 29.2803 1.52991 29.2802 1.52995L1.82058 12.5118L30.1544 1.39076ZM26.4975 7.50007L18.1499 28.3707L13.2804 20.7188L26.4975 7.50007ZM3.96748 14.1862L24.8384 5.8365L11.6201 19.0546L3.96748 14.1862Z" fill="#0C56DB" stroke="#0C56DB" stroke-width="0.463235"/>
</svg>
